<svg xmlns="http://www.w3.org/2000/svg" width="512" height="512" data-name="Layer 1" style=""><rect id="backgroundrect" width="100%" height="100%" x="0" y="0" fill="none" stroke="none"/>
 <g id="Layer_1" style="" class="currentLayer">
  <title>Layer 1</title>
  <ellipse stroke="null" opacity="0.7" ry="253.5" rx="253.5" id="svg_1" cy="256.71427047252655" cx="256" fill="#045036" class="" fill-opacity="1"/><g id="svg_6" class="" fill="#fdc9a6" fill-opacity="1">
   <path stroke="null" d="m208.31904,133.60605c-1.73063,0.68102 -3.4586,1.40233 -5.13616,2.14299a5.30595,4.83563 0 1 0 4.62944,8.70413c1.53784,-0.67941 3.12344,-1.34108 4.71257,-1.96568a5.30595,4.83563 0 0 0 -4.20585,-8.87982l0,-0.00161z" id="svg_5" fill="#fdc9a6" fill-opacity="1"/>
   <path stroke="null" d="m188.01139,143.66818a119.86679,109.24166 0 0 0 -33.10473,29.94059a5.30595,4.83563 0 1 0 8.80788,5.39414a109.29645,99.60829 0 0 1 30.1953,-27.2947a5.30595,4.83563 0 0 0 -5.89845,-8.04004z" id="svg_4" fill="#fdc9a6" fill-opacity="1"/>
   <path stroke="null" d="m91.2989,392.85694a15.67821,14.28847 0 1 0 15.67732,-14.28767a15.69501,14.30379 0 0 0 -15.67732,14.28767zm20.74362,0a5.0663,4.61722 0 1 1 -5.0663,-4.61641a5.07072,4.62125 0 0 1 5.0663,4.61641z" id="svg_3" fill="#fdc9a6" fill-opacity="1"/>
   <path stroke="null" d="m450.05562,207.6524l-11.1708,0c-16.18404,-64.36784 -79.42128,-112.09388 -155.47327,-119.08055l0,-16.30896a33.93599,30.92787 0 0 0 13.53018,-24.47231a33.14894,30.21058 0 1 0 -66.29789,0c0,10.05811 5.01324,18.97823 13.8565,24.47231l0,16.30977c-76.93544,6.98748 -140.04533,54.71754 -156.22937,119.07975l-10.79673,0c-10.8321,0 -20.04147,7.70557 -20.36779,17.56945a19.93181,18.16503 0 0 0 19.99195,18.69776l1.03731,0l3.44887,17.01657a22.57506,20.57398 0 0 0 22.22575,16.83282l60.33665,0a77.46692,70.60016 0 0 0 -17.50965,9.0265c-0.11585,0.08059 -0.22904,0.16119 -0.33693,0.25226l-10.72333,8.7001a36.71454,33.46012 0 0 1 -13.86269,7.03987l-0.20959,-0.71567a8.90339,8.11418 0 0 0 -8.44177,-5.76649l-62.28305,0a9.0042,8.20606 0 0 0 -8.51871,10.37323l32.90841,107.7539a8.95733,8.16335 0 0 0 8.51782,5.98731l65.90348,0a8.9423,8.14964 0 0 0 8.45857,-10.50459l-8.72387,-26.09466l31.5041,-18.1602a18.68757,17.03108 0 0 1 13.61331,-1.60462c0.10966,0.02498 0.2202,0.04513 0.33162,0.06367l64.74059,10.86324a83.96494,76.52219 0 0 0 8.88217,1.02274a81.85583,74.60003 0 0 0 51.95766,-13.15371l103.85254,-64.98519a5.30595,4.83563 0 0 0 1.54226,-6.48055a31.18397,28.41979 0 0 0 -23.23919,-13.61713l20.29439,0a22.66438,20.65538 0 0 0 22.12494,-16.38391l3.98477,-17.46548l0.76759,0c10.8321,0 20.04147,-7.70557 20.36779,-17.56945a19.9327,18.16584 0 0 0 -19.9946,-18.69776zm-209.01653,-159.86182a22.53969,20.54175 0 1 1 22.53881,20.54094a22.56445,20.56431 0 0 1 -22.53881,-20.54094zm31.76055,29.12498l0,10.95431c-3.5373,-0.12008 -5.89668,-0.18617 -8.84326,-0.18617s-6.19028,0.06609 -8.84326,0.18617l0,-10.95431a32.6042,29.71413 0 0 0 8.84326,1.08721a37.99682,34.62873 0 0 0 8.84326,-1.08721zm-9.22175,20.43939c78.97027,0 147.00674,46.0384 164.39612,110.29744l-328.79401,0c17.3938,-64.25421 85.4453,-110.29744 164.39789,-110.29744zm-178.54621,313.3938l-31.92415,-104.77193l58.74486,0l35.37302,104.77193l-62.19373,0zm328.55258,-117.96755l-99.23813,62.09752a71.24657,64.93119 0 0 1 -45.18373,11.48059a73.10454,66.62447 0 0 1 -7.7405,-0.89137l-64.56815,-10.83503a29.24907,26.6564 0 0 0 -21.32197,2.63864c-0.08313,0.04191 -0.16537,0.08624 -0.24584,0.13217l-29.20574,16.82718l-21.21055,-62.19181a47.33971,43.14347 0 0 0 17.76345,-9.066l10.55708,-8.5647a66.10068,60.24144 0 0 1 68.62366,-6.00585l4.44108,1.95843a56.83383,51.79602 0 0 0 24.60194,5.13866l43.06665,0a26.76058,24.38849 0 0 1 26.12917,19.26192l-30.60562,-1.2621a187.02424,170.4462 0 0 0 -34.05803,1.43296a5.30595,4.83563 0 0 0 1.45648,9.58099a176.63342,160.97643 0 0 1 32.12313,-1.35317l36.73665,1.51516c0.08047,0 0.16095,0.00564 0.24054,0.00564a5.30595,4.83563 0 0 0 5.30595,-4.83563c0,-0.62702 -0.02211,-1.2492 -0.05925,-1.86816l57.97992,-28.44961a20.61451,18.78722 0 0 1 24.41181,3.25357zm-191.92959,-15.01221l77.6314,0l-16.26186,8.05938l-32.16734,0a46.16179,42.06996 0 0 1 -19.98045,-4.17395l-4.44197,-1.95762q-2.36646,-1.04127 -4.77978,-1.9278zm93.9587,14.41501a37.20534,33.90742 0 0 0 -12.48933,-5.31032l9.18284,-4.55033c0.04245,-0.02095 0.08843,-0.04271 0.12557,-0.06448c7.0578,-3.72827 16.02133,-3.55499 23.38599,0l-20.20507,9.92513zm40.22443,-8.76699c5.50493,-2.50808 12.38056,-0.58592 16.98966,3.15364l-43.86255,21.54433a37.34684,34.03637 0 0 0 -5.3599,-8.86532l32.23278,-15.83265zm22.03209,-5.64801l17.55475,0a31.25649,28.48588 0 0 0 -11.29195,3.24309l-1.56349,0.76886a28.48059,25.95604 0 0 0 -4.69931,-4.01196zm72.18573,-43.52065l-282.49072,0a5.30595,4.83563 0 0 0 0,9.67126l270.51518,0l-3.5373,15.49899a12.00914,10.94464 0 0 1 -11.73765,8.67915l-318.99479,0a11.96139,10.90112 0 0 1 -11.78541,-8.9169l-3.09602,-15.26124l48.56893,0a5.30595,4.83563 0 0 0 0,-9.67126l-60.19781,0a9.48528,8.64449 0 0 1 -9.59139,-8.42125a9.31283,8.48733 0 0 1 9.38977,-8.50345l372.75825,0a9.48439,8.64368 0 0 1 9.59051,8.42125a9.31195,8.48653 0 0 1 -9.39154,8.50345z" id="svg_2" fill="#fdc9a6" fill-opacity="1"/>
  </g>
 </g>

</svg>